<?xml version="1.0" encoding="UTF-8" standalone="no"?>
<!-- Created with Inkscape (http://www.inkscape.org/) -->

<svg
   xmlns:osb="http://www.openswatchbook.org/uri/2009/osb"
   xmlns:dc="http://purl.org/dc/elements/1.1/"
   xmlns:cc="http://creativecommons.org/ns#"
   xmlns:rdf="http://www.w3.org/1999/02/22-rdf-syntax-ns#"
   xmlns:svg="http://www.w3.org/2000/svg"
   xmlns="http://www.w3.org/2000/svg"
   xmlns:xlink="http://www.w3.org/1999/xlink"
   xmlns:sodipodi="http://sodipodi.sourceforge.net/DTD/sodipodi-0.dtd"
   xmlns:inkscape="http://www.inkscape.org/namespaces/inkscape"
   width="297mm"
   height="210mm"
   viewBox="0 0 297 210"
   version="1.1"
   id="svg8"
   inkscape:version="0.92.4 (5da689c313, 2019-01-14)"
   sodipodi:docname="Logo.svg">
  <defs
     id="defs2">
    <linearGradient
       inkscape:collect="always"
       id="linearGradient6080">
      <stop
         style="stop-color:#26cddb;stop-opacity:1;"
         offset="0"
         id="stop6076" />
      <stop
         style="stop-color:#26cddb;stop-opacity:0;"
         offset="1"
         id="stop6078" />
    </linearGradient>
    <linearGradient
       id="linearGradient6015"
       osb:paint="solid">
      <stop
         style="stop-color:#000000;stop-opacity:0.89447236;"
         offset="0"
         id="stop6013" />
    </linearGradient>
    <radialGradient
       inkscape:collect="always"
       xlink:href="#linearGradient6080"
       id="radialGradient6082"
       cx="382.36835"
       cy="301.60977"
       fx="382.36835"
       fy="301.60977"
       r="4.7242541"
       gradientTransform="matrix(0.26458332,0,0,0.1499622,6.4684629e-7,121.57086)"
       gradientUnits="userSpaceOnUse" />
  </defs>
  <sodipodi:namedview
     id="base"
     pagecolor="#ffffff"
     bordercolor="#666666"
     borderopacity="1.0"
     inkscape:pageopacity="0.0"
     inkscape:pageshadow="2"
     inkscape:zoom="0.69999999"
     inkscape:cx="544.06269"
     inkscape:cy="415.60613"
     inkscape:document-units="mm"
     inkscape:current-layer="layer1"
     showgrid="false"
     inkscape:snap-bbox="true"
     inkscape:snap-global="true"
     showguides="false"
     inkscape:window-width="1366"
     inkscape:window-height="705"
     inkscape:window-x="-8"
     inkscape:window-y="-8"
     inkscape:window-maximized="1" />
  <metadata
     id="metadata5">
    <rdf:RDF>
      <cc:Work
         rdf:about="">
        <dc:format>image/svg+xml</dc:format>
        <dc:type
           rdf:resource="http://purl.org/dc/dcmitype/StillImage" />
        <dc:title />
      </cc:Work>
    </rdf:RDF>
  </metadata>
  <g
     inkscape:label="Layer 1"
     inkscape:groupmode="layer"
     id="layer1"
     transform="translate(0,-87)">
    <path
       style="opacity:1;fill:#eabe3f;fill-opacity:1;stroke:#26cddb;stroke-width:0;stroke-linecap:butt;stroke-linejoin:miter;stroke-miterlimit:4;stroke-dasharray:none;stroke-opacity:1;paint-order:stroke markers fill"
       d="m 131.79209,282.76866 c -1.4949,-0.2872 -3.71547,-1.65127 -4.5486,-2.79416 -1.13136,-1.55198 -1.57458,-3.66082 -1.57458,-7.49189 0,-4.24354 0.5411,-6.42013 2.65831,-10.6932 2.72246,-5.49461 8.15876,-13.35609 13.10023,-18.94434 5.51155,-6.23292 15.3022,-13.99758 24.25504,-19.2359 l 3.24996,-1.90155 0.56474,-2.93932 c 1.54812,-8.0576 2.07035,-16.89881 1.63673,-27.7094 -0.32349,-8.06489 -0.65549,-10.48656 -1.89585,-13.82911 -1.60663,-4.32955 -5.04699,-8.68821 -7.59895,-9.62724 -4.24423,-1.56175 -7.88234,-1.64771 -11.92724,-0.28183 -2.66287,0.89919 -2.9206,0.93195 -2.9206,0.37103 0,-0.52507 2.88431,-1.82577 5.28595,-2.38374 3.38439,-0.78629 7.97365,-0.20007 11.17028,1.42688 2.00394,1.01993 5.70598,5.24091 7.03761,8.02409 1.5793,3.30089 2.97528,10.01168 3.37424,16.22076 0.26687,4.15354 -0.32463,13.70156 -1.35855,21.92969 -0.50698,4.03461 -0.87707,7.37965 -0.82243,7.43339 0.0547,0.0537 1.10976,-0.42177 2.34473,-1.05669 1.23495,-0.63493 2.91914,-1.42068 3.74261,-1.74614 l 1.49722,-0.59173 0.57948,-4.50395 c 1.10153,-8.56159 1.20814,-10.05424 1.20443,-16.86285 -0.003,-5.01674 -0.12086,-7.58504 -0.44373,-9.64732 -1.11749,-7.13768 -3.28881,-13.00693 -6.79125,-18.35738 -1.82853,-2.79335 -6.40843,-5.61174 -10.5109,-6.46824 -2.95855,-0.61767 -7.92263,-0.38239 -11.09594,0.52591 -4.95521,1.41835 -9.87928,4.32084 -13.91839,8.2042 -5.72042,5.49985 -9.67178,11.60775 -11.85253,18.3213 -1.32551,4.08069 -1.71629,6.82259 -1.73228,12.15472 -0.0123,4.12625 0.0651,5.03375 0.60472,7.07712 0.34041,1.28917 0.84683,2.86684 1.12539,3.50597 0.27855,0.6391 0.50646,1.24588 0.50646,1.34838 0,0.26774 -2.86179,1.61071 -3.43231,1.61071 -0.56285,0 -1.33752,-1.99062 -2.17848,-5.59798 -0.42081,-1.80506 -0.53672,-3.21554 -0.52944,-6.4424 0.0109,-4.831 0.30152,-6.6583 2.00852,-12.62969 1.36331,-4.76907 2.33508,-6.75549 6.02859,-12.32313 1.50521,-2.26897 2.72427,-3.6514 6.02529,-6.8327 3.67301,-3.53982 4.51998,-4.21076 7.53292,-5.96732 6.88802,-4.01573 10.70842,-5.41853 16.20749,-5.95121 3.54223,-0.34311 6.07398,-0.19414 9.76489,0.5746 5.77913,1.20366 9.65262,3.10554 12.61336,6.19312 2.01326,2.09951 3.35711,4.49649 4.62396,8.24755 1.77758,5.26332 2.36225,9.41836 2.36399,16.80026 0.001,6.72036 -0.39287,11.13503 -1.66226,18.60407 -0.5469,3.21791 -0.94836,5.85074 -0.89212,5.85074 0.0563,0 1.28138,-0.40366 2.72256,-0.897 4.69995,-1.60892 9.11194,-2.32998 16.34086,-2.67062 l 3.60951,-0.17008 -0.0961,-5.14789 c -0.13479,-7.22132 0.47213,-12.74733 2.50417,-22.80048 1.60199,-7.92546 4.41316,-12.91522 8.43253,-14.96755 1.18066,-0.60286 1.67825,-0.72092 2.44332,-0.57977 1.36124,0.25116 2.62026,1.17508 3.26987,2.39957 0.81385,1.5341 0.77947,6.0801 -0.0745,9.86081 -1.23848,5.48259 -5.72494,16.44158 -8.70833,21.27164 l -0.93987,1.52161 0.42282,4.44641 c 0.23256,2.44553 0.44018,4.46548 0.46138,4.48877 0.0213,0.0233 1.66282,0.17596 3.64806,0.33925 9.31785,0.76634 18.61048,3.78211 23.43475,7.60534 l 1.63535,1.29601 2.14967,-3.3267 c 5.00984,-7.75287 10.25498,-17.88337 12.95454,-25.02049 1.74169,-4.60471 4.48729,-15.52102 5.29905,-21.06869 0.52068,-3.55846 0.406,-9.40279 -0.24022,-12.2404 -1.68545,-7.40107 -5.11254,-11.01514 -13.75548,-14.50607 -0.69721,-0.2816 -1.45699,-1.51886 -1.13012,-1.84033 0.35681,-0.35092 3.87481,0.52516 5.53855,1.37925 2.30505,1.18331 6.76182,3.91883 8.66198,5.31659 2.68243,1.97323 5.43524,5.63398 7.0802,9.4154 1.25513,2.88527 1.44531,4.137 1.441,9.48387 -0.005,7.18215 -0.75134,10.20009 -4.67693,18.93276 -2.1947,4.8822 -3.74851,8.00805 -5.57785,11.22118 -2.2425,3.93886 -9.36755,14.88484 -12.88409,19.79345 l -2.95407,4.12348 2.27674,2.35297 c 3.70357,3.82751 5.49252,7.27006 6.04992,11.64202 0.46501,3.64736 0.2367,6.12779 -0.81442,8.84846 -0.76784,1.98745 -1.09065,2.45717 -2.91327,4.23892 -2.28975,2.23842 -3.35622,2.86385 -6.20911,3.64136 -2.67471,0.72896 -4.55548,0.6925 -6.33631,-0.12287 -1.46049,-0.66868 -4.32443,-3.27855 -4.32443,-3.9408 0,-0.88867 0.60715,-0.55926 1.86072,1.00953 1.86366,2.33229 2.38928,2.62425 4.7245,2.62425 4.78324,0 10.12147,-3.55511 12.3718,-8.23926 0.63426,-1.3202 0.69272,-1.72229 0.67075,-4.61318 -0.0296,-3.89674 -0.56455,-5.81134 -2.56843,-9.19196 -1.2152,-2.05007 -5.24558,-6.70535 -5.8053,-6.70535 -0.093,0 -1.26073,1.39038 -2.59479,3.08972 -20.46691,26.0712 -25.49529,32.5532 -26.41615,34.05268 -0.59952,0.97621 -1.16071,1.77494 -1.24709,1.77494 -0.45159,0 -0.82593,-2.50725 -1.06002,-7.09978 -0.34401,-6.74867 -0.56871,-8.65912 -2.11857,-18.01242 -0.71895,-4.33876 -1.74739,-10.6694 -2.28545,-14.06809 -0.53802,-3.39869 -1.03384,-6.35185 -1.10178,-6.56253 -0.0795,-0.24639 -0.37323,0.0351 -0.82325,0.78885 -7.64906,12.81182 -21.76062,32.63316 -30.78756,43.24476 -2.49736,2.93575 -7.22515,7.74444 -8.95105,9.10424 -1.34923,1.063 -2.77876,1.36088 -3.31538,0.69083 -0.69783,-0.87131 -0.58194,-1.72094 0.63989,-4.69206 2.45943,-5.9805 7.41003,-20.97864 9.3225,-28.24305 1.25218,-4.75632 4.12117,-18.90852 3.85437,-19.01294 -0.1954,-0.0765 -6.50905,2.64133 -7.06947,3.04317 -0.14764,0.1058 -0.67424,2.20408 -1.17023,4.66271 -2.81211,13.93956 -7.69534,26.56473 -15.00182,38.78586 -3.9721,6.64393 -5.68413,9.01658 -8.55242,11.85269 -3.57033,3.53027 -6.45083,5.11126 -10.48574,5.75519 -1.86509,0.29766 -2.81514,0.30385 -4.25243,0.0276 z m 6.30962,-2.16222 c 2.7963,-0.70248 7.77182,-4.12908 9.95296,-6.85446 6.70665,-8.38021 12.56266,-20.79601 17.05476,-36.1593 1.11784,-3.82304 3.33897,-13.21264 3.33897,-14.11511 0,-0.37335 -0.14511,-0.35541 -1.13634,0.14036 -6.25288,3.12767 -13.86729,8.97392 -21.07393,16.18029 -7.78368,7.78337 -11.52545,13.02152 -15.3102,21.43293 -2.01006,4.46726 -2.92815,8.00078 -2.96095,11.39609 -0.0228,2.35339 0.0504,2.78144 0.69688,4.0758 1.47095,2.94527 4.11483,4.60127 6.89781,4.32044 0.8088,-0.0817 1.95181,-0.26929 2.54004,-0.41707 z m 36.28722,-20.36876 c 14.01973,-16.07628 24.64569,-30.73223 32.5312,-44.86886 l 1.13674,-2.03789 -4.09613,0.006 c -4.36505,0.006 -7.61579,0.26706 -11.71625,0.94502 -2.4041,0.39748 -7.48474,1.59068 -7.70798,1.81023 -0.0569,0.056 -0.7549,2.44575 -1.55104,5.31061 -4.14454,14.91383 -8.21737,26.79029 -13.58268,39.60734 -1.26019,3.01041 -2.29124,5.57375 -2.29124,5.69629 0,0.12259 0.61151,-0.10608 1.35892,-0.50803 1.05555,-0.5677 2.37681,-1.89807 5.91846,-5.95926 z m 47.58135,-9.83011 c 7.16892,-9.33547 12.10193,-15.82241 13.99749,-18.40685 2.71912,-3.70727 7.07735,-10.00866 7.07735,-10.23287 0,-0.30703 -5.51801,-3.32121 -7.88746,-4.30847 -4.75923,-1.98299 -9.89504,-3.3175 -15.51496,-4.03144 -1.97621,-0.25106 -3.65811,-0.39257 -3.73752,-0.31446 -0.0795,0.0782 0.4122,4.92176 1.09251,10.76367 1.79302,15.39713 1.86589,21.54944 0.34778,29.36462 -0.52718,2.71397 -0.47976,3.59547 0.15656,2.91031 0.18078,-0.19467 2.19149,-2.77969 4.46825,-5.74451 z m -6.13691,-54.23447 c 4.66398,-11.19323 5.96572,-15.10759 6.74864,-20.29317 0.72113,-4.77632 0.47805,-6.67914 -0.92631,-7.25123 -3.41262,-1.39019 -6.44275,5.01909 -6.96176,14.72535 -0.27896,5.21691 -0.32797,14.0427 -0.0793,14.28723 0.36507,0.35902 0.55049,0.1357 1.21878,-1.46818 z"
       id="path6062"
       inkscape:connector-curvature="0" />
    <path
       style="opacity:1;fill:#000048;fill-opacity:0.82914572;stroke:#26cddb;stroke-width:0;stroke-miterlimit:4;stroke-dasharray:none;stroke-opacity:1"
       d="m 75.271275,234.29116 c -3.151906,-0.55518 -4.969298,-1.16042 -6.765286,-2.25303 -4.606863,-2.80262 -7.82094,-7.46293 -9.972917,-14.46045 -0.534649,-1.7385 -0.9859,-3.17446 -1.002777,-3.19099 -0.01687,-0.0165 -0.924009,0.0862 -2.015836,0.22839 -2.596508,0.33806 -7.007008,0.33422 -9.263966,-0.008 -4.289923,-0.65061 -8.357902,-2.25663 -10.831803,-4.27638 -2.547399,-2.07975 -5.052379,-5.84752 -5.800622,-8.72479 -0.45405,-1.74597 -0.833337,-6.4129 -0.716845,-8.82027 0.102475,-2.1177 0.456893,-3.23996 1.51669,-4.80256 1.59761,-2.35557 4.168676,-2.57693 5.626571,-0.48441 0.411663,0.59086 0.468677,0.86982 0.463484,2.26783 -0.01166,3.15156 -1.050889,5.63606 -3.309056,7.91134 -0.934834,0.94194 -1.587113,1.7697 -1.702345,2.16036 -0.313106,1.06148 0.228766,3.78658 1.082364,5.44325 0.96829,1.87925 4.773943,5.03841 7.576653,6.28953 3.93642,1.75721 11.311656,1.71773 15.883618,-0.0851 l 1.054977,-0.41599 0.0253,-4.55547 c 0.021,-3.76954 0.09352,-4.90831 0.420343,-6.60076 1.248003,-6.46193 2.557814,-9.77344 6.067413,-15.33984 1.631282,-2.58726 2.799254,-3.97991 5.505249,-6.56421 1.751615,-1.67282 2.947334,-2.6029 5.369653,-4.17673 3.881484,-2.52187 6.440347,-3.78903 12.770145,-6.32381 l 4.985802,-1.99658 5.51545,-10.78297 c 7.235416,-14.14558 9.210846,-17.68409 14.220206,-25.47203 4.26849,-6.63611 5.19899,-7.72966 13.1946,-15.50658 2.76659,-2.69094 4.81513,-4.82449 4.76228,-4.95995 -0.0744,-0.19065 -0.29142,-0.18412 -1.09666,0.0332 -1.50642,0.40628 -4.66238,0.52235 -7.5265,0.27684 -1.40378,-0.12033 -6.16811,-0.79907 -10.58738,-1.50833 -12.684087,-2.03567 -15.196565,-2.29703 -22.214612,-2.31086 -9.198626,-0.0181 -14.510972,0.70949 -19.589365,2.68312 -2.655184,1.03187 -4.882958,2.30234 -7.87161,4.48904 -6.137204,4.49038 -9.322734,8.11663 -12.147938,13.82868 -1.999538,4.04273 -4.302491,10.7552 -4.87174,14.19985 -0.501183,3.03276 -0.429031,10.75166 0.124878,13.35835 0.506684,2.38449 1.245483,4.36378 2.603332,6.97449 1.722805,3.31244 4.069617,5.63812 7.302456,7.2367 2.146682,1.0615 3.783082,1.3587 7.508884,1.36381 3.055041,0.004 3.158569,-0.008 5.010103,-0.62713 2.845801,-0.9504 4.391558,-1.76231 6.945155,-3.64799 2.595158,-1.91638 5.235319,-4.5232 6.690539,-6.60605 1.580741,-2.26254 4.810768,-7.59567 5.569453,-9.1958 0.915126,-1.93009 1.760181,-4.30778 2.478118,-6.97264 0.49064,-1.82119 0.590241,-2.58017 0.671624,-5.11807 0.159419,-4.97136 -0.30975,-7.04932 -1.971555,-8.73216 -0.835937,-0.84651 -1.803927,-1.07958 -4.123093,-0.99273 -2.953134,0.1106 -4.261856,0.91115 -6.319405,3.86563 -0.643669,0.92426 -1.250703,1.68046 -1.348974,1.68046 -0.314763,0 -0.191516,-0.9718 0.234252,-1.84715 0.619303,-1.27321 3.464899,-3.94324 4.988896,-4.6811 1.084347,-0.52502 1.446362,-0.60505 2.790397,-0.6168 2.608916,-0.0228 4.264846,1.00901 5.516317,3.4374 1.276334,2.47664 1.550744,4.33529 1.225408,8.30023 -0.438955,5.34971 -2.501217,10.77947 -6.908605,18.18982 -3.841983,6.45973 -5.696449,8.50666 -10.681519,11.79017 -2.889165,1.90299 -5.137286,2.73922 -9.302033,3.46005 -1.827505,0.31631 -5.081393,0.35292 -6.676782,0.0751 -1.341626,-0.23361 -4.414061,-1.19653 -5.47021,-1.7144 -1.972108,-0.96698 -6.425172,-5.24823 -7.914916,-7.6095 -1.817111,-2.88016 -2.57545,-5.1895 -3.159403,-9.62116 -0.663593,-5.03606 -0.437887,-10.07715 0.66839,-14.9282 1.863014,-8.16936 5.254757,-14.26858 11.333922,-20.38127 3.497848,-3.51715 6.908615,-6.018 11.26641,-8.2608 6.01511,-3.09574 10.371507,-4.18551 18.546569,-4.63945 3.615555,-0.20076 4.461575,-0.17954 11.816278,0.29639 7.353259,0.47584 8.634339,0.61363 17.847559,1.91969 9.53598,1.35182 10.0667,1.40738 13.51781,1.41496 3.7537,0.008 5.32218,-0.17805 8.42059,-1.00029 1.36818,-0.36307 1.79856,-0.60324 4.20867,-2.34863 4.88805,-3.5399 8.81939,-5.692194 10.41208,-5.700289 1.06169,-0.0049 1.44199,0.333456 1.44199,1.284789 0,0.86206 -1.24417,2.17169 -2.70715,2.84958 -0.64272,0.29782 -3.08282,1.18547 -5.42245,1.97257 -6.63305,2.2315 -7.0866,2.47555 -11.53269,6.20571 -6.97581,5.85253 -12.20015,12.17078 -15.69396,18.98007 -2.11257,4.11731 -7.11814,16.14128 -11.1512,26.78653 -1.77009,4.67215 -2.17231,5.90668 -1.98826,6.10247 0.22245,0.2366 3.42173,-0.6318 26.38301,-7.16119 l 1.61439,-0.45908 1.97686,-3.0993 c 5.43232,-8.51673 9.0854,-13.38341 17.19072,-22.90161 6.21588,-7.29943 17.44507,-17.68809 24.20936,-22.39727 3.94087,-2.74355 8.84476,-5.30735 12.85379,-6.72007 1.82209,-0.642081 2.15595,-0.70061 4.06481,-0.712563 1.54438,-0.01002 2.35458,0.07577 3.14784,0.331971 1.86369,0.601922 2.99661,2.193372 2.99661,4.209492 0,2.37727 -1.23692,6.79674 -2.64976,9.46754 -1.72734,3.26531 -10.10984,13.07145 -14.93285,17.46896 -4.16795,3.80023 -11.17948,9.26239 -13.50236,10.51872 -0.63241,0.34202 -2.76629,1.49648 -4.74198,2.56544 -8.35029,4.51803 -12.91107,6.65748 -17.58211,8.24777 l -2.55444,0.86967 -1.8646,2.99663 c -2.49243,4.00563 -3.86349,6.51499 -7.47886,13.68803 -5.99179,11.88797 -8.11735,16.87047 -11.0646,25.93624 -2.36938,7.28826 -2.77135,9.05058 -2.96917,13.01761 l -0.0928,1.85939 0.91208,1.56466 c 0.54149,0.92893 1.13963,1.7009 1.4721,1.89992 0.76967,0.46076 2.91329,0.91561 3.71333,0.78793 0.57422,-0.0917 0.68769,-0.0439 0.87974,0.3707 0.21013,0.45356 0.18934,0.48165 -0.44267,0.59826 -1.71114,0.31571 -4.8941,-0.59458 -6.06188,-1.73364 -0.70832,-0.6909 -1.70064,-2.6488 -2.40423,-4.74369 -0.70342,-2.09435 -0.94371,-5.35155 -0.83243,-11.2837 l 0.0926,-4.93854 1.54314,-6.41485 1.54315,-6.41483 2.66987,-6.04297 c 1.89852,-4.29713 3.54309,-7.64289 5.69247,-11.58095 1.66243,-3.04589 2.98742,-5.57262 2.9444,-5.61492 -0.043,-0.0423 -6.16911,1.52903 -13.61353,3.49186 l -13.5353,3.56881 -1.460825,4.55627 c -3.116177,9.71933 -9.865063,23.18723 -13.883447,27.70546 -0.591177,0.66473 -1.981873,2.29634 -3.090427,3.6258 -5.44753,6.53306 -13.037048,11.5636 -20.640397,13.68101 -1.448265,0.40331 -2.673889,0.77331 -2.723616,0.8222 -0.04967,0.0488 0.146834,0.96913 0.436772,2.04495 1.495452,5.54883 4.732677,10.9103 8.088667,13.3964 3.238115,2.39878 6.778885,3.68077 10.821868,3.91826 2.16461,0.12711 4.200464,-0.22686 6.544174,-1.13793 3.590195,-1.39562 6.046636,-3.13551 8.837033,-6.25927 1.969943,-2.20528 3.141671,-4.31876 4.725042,-8.52269 1.224941,-3.25227 1.541344,-4.94566 1.676332,-8.97146 0.100533,-2.99824 0.141436,-3.3004 0.446804,-3.3004 0.4684,0 0.63912,1.52202 0.48562,4.32958 -0.29175,5.33644 -1.893049,9.99128 -5.078012,14.76136 -2.00936,3.00941 -4.293917,5.15871 -7.616788,7.16587 -1.455763,0.87932 -3.072229,1.73928 -3.592145,1.91099 -2.571299,0.84918 -6.117046,1.05964 -9.074903,0.53863 z M 61.18627,208.67081 c 1.700838,-1.13687 9.040106,-8.12567 10.755536,-10.24193 1.725692,-2.1289 4.555112,-6.07421 7.669128,-10.69368 1.982005,-2.9402 3.60968,-5.69546 6.151448,-10.41293 3.186665,-5.9144 5.370674,-10.21453 5.248779,-10.33441 -0.08669,-0.0852 -4.978681,1.91879 -7.703898,3.15599 -2.927953,1.32924 -7.028047,3.53391 -9.453945,5.08347 -3.119452,1.99258 -7.455035,6.80965 -10.66959,11.8545 -1.492077,2.34164 -1.910444,3.2164 -2.932565,6.13167 -1.431882,4.08403 -2.041719,7.81303 -2.218936,13.56828 l -0.119867,3.89312 0.927984,-0.52813 c 0.510386,-0.2905 1.566065,-0.95467 2.345931,-1.47595 z m 81.13164,-58.01104 c 4.30309,-1.53355 9.44001,-3.89719 15.33881,-7.05785 6.26093,-3.35468 11.35729,-6.84356 16.55204,-11.33119 2.28559,-1.97448 11.25105,-10.89126 12.86465,-12.7948 3.16397,-3.73249 5.04838,-6.90869 6.2705,-10.569 0.61794,-1.85073 0.75183,-2.51151 0.75183,-3.7104 0,-3.35744 -1.52655,-4.91519 -4.82443,-4.92304 -2.34328,-0.006 -3.75427,0.52864 -7.05476,2.67101 -3.29744,2.14038 -4.5234,3.11082 -11.71544,9.27363 l -5.48609,4.70098 -6.13643,7.56373 c -8.83645,10.89172 -10.23716,12.84385 -15.63347,21.7879 -1.38828,2.30098 -2.64811,4.37186 -2.79961,4.60196 -0.36142,0.5489 -0.22022,0.53284 1.8724,-0.21293 z"
       id="path6064"
       inkscape:connector-curvature="0" />
    <path
       style="opacity:1;fill:#e0be3f;fill-opacity:1;stroke:#26cddb;stroke-width:0;stroke-miterlimit:4;stroke-dasharray:none;stroke-opacity:1"
       d="m 131.42227,220.52933 c -2.03132,-0.3934 -2.58353,-0.54802 -3.40309,-0.95281 -1.28564,-0.635 -2.2622,-1.41916 -3.16267,-2.53951 l -0.75577,-0.94033 0.63579,-0.24973 c 0.3497,-0.1374 1.33358,-0.54202 2.1864,-0.89925 l 1.55061,-0.64949 1.00171,0.73607 c 2.49006,1.82972 4.33004,2.34339 7.90242,2.20615 3.11641,-0.11977 4.71703,-0.45718 6.77752,-1.42892 5.46397,-2.57681 10.99466,-7.61534 14.11499,-12.85893 0.71718,-1.2052 0.9992,-1.50425 1.2658,-1.3422 0.32773,0.1992 0.0989,0.72849 -1.15458,2.6708 -3.49916,5.42199 -7.23162,9.19288 -12.08007,12.2044 -4.95454,3.07744 -8.29112,4.18343 -12.48517,4.13856 -1.10868,-0.0113 -2.18593,-0.0546 -2.39389,-0.0948 z"
       id="path6066"
       inkscape:connector-curvature="0" />
    <path
       style="opacity:1;fill:#000048;fill-opacity:0.82914572;stroke:#26cddb;stroke-width:0.35714287;stroke-opacity:1"
       d=""
       id="path6068"
       inkscape:connector-curvature="0"
       transform="scale(0.26458333)" />
    <path
       style="opacity:1;fill:#000048;fill-opacity:0.82914572;stroke:#26cddb;stroke-width:0.25253814;stroke-opacity:1"
       d=""
       id="path6070"
       inkscape:connector-curvature="0"
       transform="scale(0.26458333)" />
    <path
       style="opacity:1;fill:#000048;fill-opacity:0.82914572;stroke:#26cddb;stroke-width:0;stroke-miterlimit:4;stroke-dasharray:none;stroke-opacity:1"
       d="m 128.14759,212.96879 -0.43057,-0.43689 3.17832,-2.12102 c 4.35998,-2.90954 7.26337,-5.44491 12.00824,-10.48612 4.70478,-4.9986 4.63844,-4.92067 8.51065,-9.99868 4.80348,-6.29926 6.05151,-8.18291 8.62134,-13.01219 l 1.29141,-2.42682 0.29594,0.27343 0.29596,0.27345 -1.13876,2.3093 c -0.86394,1.75202 -1.79994,3.31227 -3.87858,6.46543 -5.84557,8.86726 -7.34644,10.84583 -11.27072,14.858 -3.99406,4.08351 -10.73968,10.66321 -10.93209,10.66321 -0.0869,0 -1.14704,0.73804 -2.35582,1.64009 -2.1626,1.61383 -3.39039,2.4357 -3.63866,2.4357 -0.0694,0 -0.31985,-0.19659 -0.55666,-0.43689 z"
       id="path6072"
       inkscape:connector-curvature="0" />
    <path
       style="opacity:1;fill:#000048;fill-opacity:0.82914572;stroke:url(#radialGradient6082);stroke-width:0;stroke-miterlimit:4;stroke-dasharray:none;stroke-opacity:1"
       d="m 123.57068,215.34435 c -0.0633,-0.113 -0.18589,-0.33436 -0.27232,-0.49191 l -0.15715,-0.28647 0.094,-0.0219 c 0.27779,-0.0648 0.75573,-0.18916 0.94624,-0.24621 0.11948,-0.0358 0.84891,-0.38774 1.62094,-0.78213 l 1.4037,-0.71705 0.13368,0.15054 c 0.0736,0.0828 0.28038,0.30535 0.45968,0.49455 0.17929,0.18919 0.31465,0.35483 0.30079,0.36811 -0.042,0.0402 -1.09469,0.51459 -1.64614,0.74176 -0.83482,0.34392 -2.63028,0.99615 -2.74214,0.99615 -0.0143,0 -0.0779,-0.0924 -0.14126,-0.20544 z"
       id="path6074"
       inkscape:connector-curvature="0" />
  </g>
</svg>
